<mxfile host="Electron" modified="2024-03-24T23:13:15.909Z" agent="Mozilla/5.0 (Windows NT 10.0; Win64; x64) AppleWebKit/537.36 (KHTML, like Gecko) draw.io/21.6.8 Chrome/114.0.5735.289 Electron/25.5.0 Safari/537.36" etag="eTZbKRq_DFRApVVt8437" version="21.6.8" type="device">
  <diagram name="Страница — 1" id="_NNJ8Qyopue1inblywc9">
    <mxGraphModel dx="590" dy="706" grid="1" gridSize="10" guides="1" tooltips="1" connect="1" arrows="1" fold="1" page="1" pageScale="1" pageWidth="827" pageHeight="1169" math="0" shadow="0">
      <root>
        <mxCell id="0" />
        <mxCell id="1" parent="0" />
        <mxCell id="GY1q3MS_324Swv_kfccG-21" style="edgeStyle=orthogonalEdgeStyle;rounded=0;orthogonalLoop=1;jettySize=auto;html=1;entryX=0.5;entryY=0;entryDx=0;entryDy=0;" edge="1" parent="1" source="GY1q3MS_324Swv_kfccG-16" target="GY1q3MS_324Swv_kfccG-4">
          <mxGeometry relative="1" as="geometry">
            <Array as="points">
              <mxPoint x="180" y="330" />
              <mxPoint x="214" y="330" />
            </Array>
          </mxGeometry>
        </mxCell>
        <mxCell id="GY1q3MS_324Swv_kfccG-23" style="edgeStyle=orthogonalEdgeStyle;rounded=0;orthogonalLoop=1;jettySize=auto;html=1;entryX=-0.001;entryY=0.558;entryDx=0;entryDy=0;entryPerimeter=0;" edge="1" parent="1" source="GY1q3MS_324Swv_kfccG-16" target="GY1q3MS_324Swv_kfccG-13">
          <mxGeometry relative="1" as="geometry" />
        </mxCell>
        <mxCell id="GY1q3MS_324Swv_kfccG-24" style="edgeStyle=orthogonalEdgeStyle;rounded=0;orthogonalLoop=1;jettySize=auto;html=1;exitX=0.25;exitY=1;exitDx=0;exitDy=0;entryX=0.25;entryY=0;entryDx=0;entryDy=0;" edge="1" parent="1" source="GY1q3MS_324Swv_kfccG-16" target="GY1q3MS_324Swv_kfccG-12">
          <mxGeometry relative="1" as="geometry">
            <Array as="points">
              <mxPoint x="195" y="140" />
              <mxPoint x="195" y="300" />
              <mxPoint x="368" y="300" />
            </Array>
          </mxGeometry>
        </mxCell>
        <mxCell id="GY1q3MS_324Swv_kfccG-25" style="edgeStyle=orthogonalEdgeStyle;rounded=0;orthogonalLoop=1;jettySize=auto;html=1;exitX=0.75;exitY=1;exitDx=0;exitDy=0;entryX=0;entryY=0.5;entryDx=0;entryDy=0;" edge="1" parent="1" source="GY1q3MS_324Swv_kfccG-16" target="GY1q3MS_324Swv_kfccG-14">
          <mxGeometry relative="1" as="geometry">
            <Array as="points">
              <mxPoint x="230" y="140" />
              <mxPoint x="230" y="203" />
            </Array>
          </mxGeometry>
        </mxCell>
        <mxCell id="GY1q3MS_324Swv_kfccG-16" value="" style="shape=parallelogram;perimeter=parallelogramPerimeter;whiteSpace=wrap;html=1;fixedSize=1;" vertex="1" parent="1">
          <mxGeometry x="136.02" y="100" width="151.99" height="40" as="geometry" />
        </mxCell>
        <mxCell id="GY1q3MS_324Swv_kfccG-14" value="" style="rounded=0;whiteSpace=wrap;html=1;" vertex="1" parent="1">
          <mxGeometry x="250" y="180" width="273" height="45" as="geometry" />
        </mxCell>
        <mxCell id="GY1q3MS_324Swv_kfccG-18" style="edgeStyle=orthogonalEdgeStyle;rounded=0;orthogonalLoop=1;jettySize=auto;html=1;exitX=0.75;exitY=1;exitDx=0;exitDy=0;entryX=0.529;entryY=-0.009;entryDx=0;entryDy=0;entryPerimeter=0;" edge="1" parent="1" source="GY1q3MS_324Swv_kfccG-13" target="GY1q3MS_324Swv_kfccG-12">
          <mxGeometry relative="1" as="geometry" />
        </mxCell>
        <mxCell id="GY1q3MS_324Swv_kfccG-13" value="" style="rounded=0;whiteSpace=wrap;html=1;" vertex="1" parent="1">
          <mxGeometry x="250" y="250" width="233" height="40" as="geometry" />
        </mxCell>
        <mxCell id="GY1q3MS_324Swv_kfccG-12" value="" style="rounded=0;whiteSpace=wrap;html=1;" vertex="1" parent="1">
          <mxGeometry x="316" y="320" width="207" height="50" as="geometry" />
        </mxCell>
        <mxCell id="GY1q3MS_324Swv_kfccG-1" value="" style="shape=image;verticalLabelPosition=bottom;labelBackgroundColor=default;verticalAlign=top;aspect=fixed;imageAspect=0;image=data:image/png,iVBORw0KGgoAAAANSUhEUgAAAVoAAAAiCAYAAAAeVxFuAAAAAXNSR0IArs4c6QAAAARnQU1BAACxjwv8YQUAAAAJcEhZcwAADsMAAA7DAcdvqGQAAAs1SURBVHhe7ZzJi9VOEMczv7u43QRFXEBRUURF3EBBR8WDoOB28eYGHt0vorihR3UEBU+uiCLugoIb7igqCi6IiCcXxD9gzLcm3/erid2dZV7ey3uvPxAqk+Ql3dVV1dWdzrR1hgQej8fjKYz/IunxNDX79u0L+vXrF/3l8dQWn9F6mppTp04F27ZtCz5+/Ch/e3P31AOf0daZe/fuBUuXLg22bt0aHSmGK1euBBMnTpTA0ypArxcuXAiOHz8eTJgwITrqyUutbLXs5PIlZLSe2hNmWJ3t7e1Irzr37t0rfxfJ9+/fO0+ePNnZt2/fzqFDh3bevXs3OtO8aJ1S160E68wN7Z+HWttq2cnjSz7QOlizZk03Q8W2ZMmS6GwXUHL8GmxoDBsvXryQRsKG/VqCcoXZnZQxr+M1Iq0YaEFHR0fFJvMEyHraar2Aj8DPYTMusviSD7QJ6GCLfRMwQF4Dg3QZNBoHvWA9DVcbSKs4T6sGWiYCsLeslMFWaw0zVegsKdCCtL7kA20CGCpBidhcAZTXbNmyJTpihoEbmUY9YecARyozthGDaUNb2Wj1jDY+EktDWWy1FujpEW5pAi1I40s+0CaAwAkloteygUZi47jma3hdWYIbHakVphBaNdAiwKLerk7IRNlstUjQkSCLhT/Af1Fn1D1toAVJvuRXHSTw7NkzkXPmzBFp4vHjx9FeEEybNi3a+5f9+/eLDI1fZL1ZsGCBSCx/8jQnN27cEDllyhSRaSmbrRbJ+fPng4sXLwaHDh0S/x02bFh0Jj1JvmQNtJ8+fZKlHG1tbbLQG0saTGCZA645cuRIdKS5uH79usipU6eKNPHq1SuRYQ8o0gaXg8ybN0+kDegSjQ29rl27Njra1Sb4m22idf7jxw85h+M4n2YJzvz580WG2Uvw8uVL2a8FrAfryG3u3Lnd6lsWsKyJdg4JXQNIfgiBc/Gy4xzriLrxdzZMesHzbL6ngS2wjPwdnv/r1y85P3LkSJFpSWurNt2AuG6S6l8vrl275kyQ0pDoS1Fm2w3MOWCojOED5yhNaTQmgnEOm2vI3FP0PGmeLcsQQKPnB6ELG5wMdw3POI+DzQWGILgPdMtJefwWG//WG47rCXm9pZkS4JC6VvNwrAeGZ7QZlJ9ziUUMVfEc6i7rNAmux/AbZdS6sumceuRQUm84ZgPPwTW4J/UCm+MzLl++LMfi6HLQbgD1yXtmIa2tZtWNq/5lgnXJGjdcvmTMaM+cORMcPXo0GDJkSNC7d+/o6L+8ffs22nMPmRuVBw8eiAydX3RhAr3006dPZX/06NEiTTx8+FAk7mUDGQ3YsGFD0L9/f8kGQK9evYJFixYFmzZtCkIjDkJHkOMAGfeKFSvkvuhNcZ7P+PLli0gXrNft27dFFg0yL2RZO3furNgM6rpq1SoZprqmaLKCjArZ1PTp0yuZ3bJly+QYMsw04IOHgwcPShmpq4EDBwbr1q0z6hzDUDz3yZMnQRgwEakqw2+2bxxkrCgX7qGzKzxv+/btsr9+/XqRcVAP2F8Y9Cp2A6BPgkwzC2lsFaTVDet/+PBhkc2K05e64q0dvgxCzxWHmWbWHrNRQJ1Rv7QbenIb1FWWXpL3RSYQ7yXZe3ISX8Nzrgyb5ClXT2DZklZnlBGWHfqO+wP1iPaAP2hbcOkY17mybdeoivc1+Sbg70z3dZHHJly60XVAtlx2WJcs9QcuvSW+DONk+syZM0Vqbt26JbKaWUiZYN2RLYS6Mm6hcuUa9ODMJqoB5r7Iz58/u2UogC/gkPXu2LFD9uMMGjQo2qs+zBYxj5+FWbNmidy1a1fDzetzvh52gUxO8/z5c5HInDEaNNkCMx7NsWPH5DewnyRdfvv2LdrrYs+ePSI3b94sUqOz56zzs3lw6Ubz58+faM8NbKsnm/afMuAMtHpYPHv2bJEaOvuYMWNENhMw1DQvEorqbN68eRPtdQUlDdqFZcN3/HGnptFPmjRJZBFs3LhR5OnTp0WmBcPbMOuR/dWrV8vQt5Yv4vKiy4hpj7jOMUwG6HjHjh0r+4Q2MmPGDJGas2fPigyzQJEuBgwYEO11vaxigI4/D7x7905kmC0bz1eTJN1oahH0y4gz0HIOFo0Z742h3DSBqFFhJ5JkqAxqJifqCZzngQPGdf/o0SORaJf43Dh7cpTblEFVC2byaQJEHCyjwSgBZYT+MFoq+z+74bwlyhzPPHVCsnjxYpEa2kjcT/TvbKtadIer2/POnTsibR38pUuXRBbZ2RLGCZNuwNevX0XifNpRn2n0mGUr2zsjZ6DlyyBTY3LYB+W5AhECMrIWDDXzwmFq3i3tiw8NDdllqHp4Uu3Ohg5omrK5f/++SFO7uNqsmiAzhUHnDZBwyPfv38t/1UKHjeU/tpdFZYBZm0mvuuOLd26644v7iX6ZPGLEiGivO7rD1VBXgwcPFqlBAGe7cKqmSOgrtqkPLn9MmhppZpyBlkOeuIHAePgG0RaIYAhwnnHjxlV69EYCb42By1CZbSR1NoCrNz58+CDSBXTHoeioUaNEavgRhemZHIqaArSJz58/i+zTp4/IWoLsBm/ZoT8EW/3hR9ngfP348eNFal6/fi0SnUacq1evikzq+EyjDwRMPnfhwoUi04C3/hxtZv1QAWSxVUBfsfkAp5eWL18usllx+ZIz0NLwtbMjCKxcubIyz2YKRAjEMCwMpzs6OqKj+WH2lHeDM2dBD+lchspsI83wbPLkySIZQF1wfg2YhkDsuHhPDcttCtAmmBmlDcx5wRIm0xc3CLbU3+/fv0WWDdgD281kD0xITDpkp2gK0EncvHmzMg9rywbjOmMmi84L5BlpZbFV4LI5lAf3aW9vL91wvto4fSkMRFZwGhuXa3DhN5aL4BjOcekIlm1wyQ6WrHB5C5d2YOlDo4A6se4ovw3oIkvdeL3rngD3w3WmZSJ6qUwc0zm0iW2xO+D1RS+7YZ1Cp4uO/A8Xt5d16Y9L54DnTO0aP4e20EvbaBPxuutlX6b70v/CICw6xfXQMX6De/G5BM806d5GWlvVuolfyzqwTI1C3uVd1IOprs5Ay8bUG42E59C4uDEa3PQANkTaYFRvYBx0fGzsSOIwcGCDLtixuMAaQ1yvHc0EG9qkMz7XZATawVAelB3X2coGp8e1aLuiYZ2gWzo8ykWdQJYVl851oDHBgAVdo31Qf+0nvLfWC+6Jv/Fbm/2x7fTGgIb78Bh0jDXYWfWb1lZtfoDywa4aKchSV6wPNujf5j+aJF9yBloaBm+AmxGcoxGhUWy9ZaMFWpQ1vul6A21c3ExOGIcOAL254D3jzwUMWDYHwHE+I0nn7CxtzlxNYAewE9oTN9SnFs/vCS6d60BpAnXTfmJyWlyj9QJfc/kUwbN5b7SlDmi0A9zL9EloEmltlTaE8nKfz7XVt2yY/Nm0wYZtJPmSM9BWg0YLtEUD4yuDPuCUKIetB/Z40tgq7AfXuIJQs5PGl3ygrTHo4dEgyBR0BlJLUAZmUPUqg6f8JNmqnqJoVdL6knPVgaf64C37uXPnZB9vJ/VXNbUAb9D1PyJJWpbmaV2SbJWrY8JAI7LVyOJLPtDWATQIGgfLmrDOGB9kcGlIUcAosNRm+PDhsmQoHGm09AJyTzpctsr1w2m/9moW8vhSoYEWBTpx4oTsY61h0cGkkcACdazvRU+If0iCfy5SJPh66cCBA8Hu3btlv9nXNHqqh81WuX641cjjS22YP4j2qwo+fbWBHsA7usfT2Ggfx/QBvxDz/Ethgdbj8Xg8Xfg5Wo/H4ykYH2g9Ho+nYHyg9Xg8noLxgdbj8XgKJQj+AtArxsaXJDEJAAAAAElFTkSuQmCC;" vertex="1" parent="1">
          <mxGeometry x="257" y="189.76999999999998" width="259" height="25.45" as="geometry" />
        </mxCell>
        <mxCell id="GY1q3MS_324Swv_kfccG-2" value="" style="shape=image;verticalLabelPosition=bottom;labelBackgroundColor=default;verticalAlign=top;aspect=fixed;imageAspect=0;image=data:image/png,iVBORw0KGgoAAAANSUhEUgAAASUAAAAjCAYAAADSSRzeAAAAAXNSR0IArs4c6QAAAARnQU1BAACxjwv8YQUAAAAJcEhZcwAADsMAAA7DAcdvqGQAAAm4SURBVHhe7Z3bq01fG8fnfv8BNi7lwuZCEjknFOWYRC5QLhQRt3LI4YqcIjcKRUk5JSlFuOBioxxbQpRDLuTKIfwB+52fx/z6DXOPOfeaa++191xrjU8Nz9xjrDnnGM94xjOOa2nriokCgUCgJPwvkYFAIFAKglMKdOPbt2/R5s2bo4ULFyYxgUD/EZxS4C84o8OHD0ejR4+OTpw4kcQGAv1LcEoBA4c0bdo0u75+/brJQO+4f/9+tGrVqmjXrl1JTGty8+bNaMqUKdGlS5eSmHyCUwoYQ4cOje7cuRNt27YtmjlzZhLbWrS1tf0TPn78mKQUg/uY+s6aNSuaOHFitG7duiSlNaGz27Jliy0JjBo1ypx1HsEpBf4ycuTI5Ko1YSN65cqVdt3R0VGTPl68eBFNnjw5evz4cVSpVMzJN7teKTMjIab+PujwGDG+e/cuam9vN2edN2oKTikQcGBkAziWojAFXrFihV3fu3cvGj9+vF03K1qDnDBhQvT06dMkNhuc061bt0y3q1evNmfmIzilJgMjSU9DskJPw+hW5Pnz5ybnzJljsgh79uyJPnz4EB04cKDpHRK2w7Rs+/btSUx14JhOnz5t13LgaYJTajKYLjANqSa06tpRHqyrwdixY01WC+tI7Fgy7du4cWMS23wwOmLhfunSpdGGDRuiGzduJCnVg8PetGmTOXDfNC44pUAggenEjx8/7Lqowz5y5IhJrUk1Kz9//oyePXtm0zU6wMWLFycpxViyZInJ3bt3m3TJdEp4fhanGOYPGTLEtvV8sMDFZ06dOpXEND7qDSg3ZXO9OcNWdlb6cwrEO6gL5YfANfkoo97JE7ss5JMdF4FN8bfy7+YdnZOmMlazje7TC39nrVUI1a/yqPuUn1rWk2QjixYtMplFlm5UfuIpT9ai8UDDoj3rQr1dvJczY7TUrb7iYXw3KpVKV1wxXfENXYcOHeK7cV0LFixIUv/j69evlkbo7OxMYuuD3lNrqDZ/lImy8/l4aGr3tre3W9rFixe7PZfP1xO9E/1TH4CMh78Wj+xrTp48ac+m3NhCEcgPNoNeuJ/n8AyC/nYD8dJ5Oo2yZ6HyxyOTv3qhzngHQXFplA+Cns/79TzCzp07Lb5aeKbuzaOobvLKXyaUX8pWBGya+7A3F68WqRQUBTJQn1PCCJSheqP31BqqdUo4IilJ5ZOTwnD0HOII9aajo8Py4GtkbsPqC2QkvlCNwclZCjfvXKtBuo2YON4r50K67st6J/ZJOvekUZqbD8Hz0RlB9i1cWy6qU7UR8p1FtbrR36T52lwZkd6qsREXdQTpeuzRm+QZAJkgrT8a50DgOiUMJW3I/QHvJ+AsGw3lHeNL94ZygDiItANRms/IXedBA04jm/Q5CD03nRfo6bl56J1FnIje5dONnoduGgGVxVdfeWTprceFbu1G+LZI7969a3L+/Pkmm42HDx+aZFFv69atvdrm1TpU0TWguMJMrlmzpl/Wr/oKN6/fv3/vtiPF4UJg/WTv3r12nWbEiBHJ1X/s27fPZNyYc9c1YseSXP2BdYvbt2/b4T3f7tjnz59Nkl7vw4496UZo0b0atDZWayiTbeU6JRbfdChq3rx5Jl1kWOPGjTPZbOjMSjxS6tU2LxVOg4Br166ZrJbz58/b+zFQTsKyGEq9lJ3Xr18nV1G0f//+5OoP5F8N7uzZs3Z2xUW6mjp1qknBfUrT7k0W8UgpufqDOgMWtH28fPnSZH90sHm6caHeW5Fcp/TmzRuTVHC693C3T8eMGWOy2dAocf369SZrhe1ljXiWL19uslp0CjYe6trfnIXh0FpPO0wDDSeaIZ72d7OdR48emcSu0lvv6rF9IxbdB/rycBp1JOxwuaguZ8+ebTLN5cuXTepEdz1R3fl0A58+fTKZdqx5xLOeXoUynVnLdUqavvh6D/U8GI9vWoNx0au7265MYWodJrpDzVpC0feyfS2nO336dJO9AcdC5dcy4sIxcSakUqmYvpma9NZR1huNsH3T/gcPHpj02VWezb169cokjTU9uhJyPmnnr+nc8OHDTbpgG0qfMWOGyXqiPC5btsxkmidPnpjMSm92cp2S1ozSTodK1O/tpIfYQDpTDZRLBdAYOzs7behNPA2+7GhqmuV0BwLyoZ8VodGXVY/kS43cdzKaw3fg0+uVK1dM5n3NIz0KEtidOhLfcoMPpoRr165N/ip+aBIGDRpk8v379ybz4H3SjW+Gge6oW+yu2jI0KhoRDh482KTIdUpqmK5hoTQqkYVGmDt3rkkfx44d+zs8pbJ1z5cvX0wWwR1q1hKKGpvWGHxOtz/gcJ97uE645fj9+3dyVS7evn2bXPkbudaFfCNQjbCKfs0DLly4YDJvEfzXr1/J1R/4vppGZbWu4agccjZ5aEkEfE5ZJ8N37NiRORpsFtSppjugXKekXuf48eMm6YmoOHZA2DUA7ZAwT9YpXAzR5wjw/o2CevM8p1tPeL+G+S5a5C7TCC6NpllaR3PBhkQ6/26abAeb0rcJ9Dx1li7cy+gdvfh282R7586dMx3SIFj0RmqdSU6AdF+HkAXl0PPdMvjQ9NSHykAba4XfYMrsnGLnkQlnk/iIG3TaVWmcNeD8TjzPzz3Ho0NxscKTmHKj8nJ+ZSDQ+znHgu4g7olNf8SX+bQv507Io+/cStbZFMB+VG7KTBn5nMoPerarFz4XO4VcG9R5OzegS73H/ZtnF9Uv9/AMtY8slH+C9MM7OatEGZSHRgB7VLkJ6L/a83T6tgT3pMl1SlSwGkH6haShRNLIGBnMg880isLdg3QDlV8aBY4fvSsv6Ju4gXKU1aL8+gxUjTKr8cp5UFafU6M+iHf1gl0Rl1dXpKkB8Wyu9Xmk8sWzatEv9q9n56E2Q37VtvReX3nLiOtY80IeGtT4nH/+nX0EvUCjOKRAoFbk9LKcixxXTw222dGI2DdKgtw1pb6Ab0/zo05siTf7wl2gtWEtK25o0cGDB73nyLQWFo80TLYirNfpOMvVq1dNpqmrU8IhHT16NDikQEuAjauhsaOUdkza0Z00aZLJVgOHxFlFdljjaVvmRk3dnBI7CfyAU9ohsatR1t+KCQR6Cw2NRsdREn67GlvX1rd2dHWuqVXAGTFA4f8TZEefM4tZX/eBujglMsFZpngOHQ0bNuyfk9U6dBkINCuckaIzZjTA117OnDlj8doCbzX4ehAzJn67nGvf2bV/SNaW+hQWtnl0VmiUXYZAoK9wd3QJPR0daGXa+CdWUiAQCJSCuu++BQKBQBGCUwoEAqUiOKVAIFAqglMKBAIlIor+Dyic6zsZSskKAAAAAElFTkSuQmCC;" vertex="1" parent="1">
          <mxGeometry x="256.04" y="256.81" width="220.92" height="26.39" as="geometry" />
        </mxCell>
        <mxCell id="GY1q3MS_324Swv_kfccG-3" value="" style="shape=image;verticalLabelPosition=bottom;labelBackgroundColor=default;verticalAlign=top;aspect=fixed;imageAspect=0;image=data:image/png,iVBORw0KGgoAAAANSUhEUgAAAQYAAAAfCAYAAAAFm2PbAAAAAXNSR0IArs4c6QAAAARnQU1BAACxjwv8YQUAAAAJcEhZcwAADsMAAA7DAcdvqGQAAAoESURBVHhe7Z25ixRNGId7vz/AY03FwCMQBcUbL1DQFTFQRDQUFDwCExXxihRlRRMDD1Aw8kBNBMUDNPAATxQVDVRExMj7H9ivn9f++dXXU93T3TvTOzvTDxTV07XTXfVedY529YUEFRUVFQ7/RHlFRUXFX6rAUFFRUUMVGCoqKmro6MBw7969YM2aNcHu3bujOxWtxLVr14Lp06cH58+fj+5UlEVHBoYPHz4ES5YsCebNmxdMmTIlWLduXVTSfzDmsWPHBl1dXcGhQ4eiu3/gvdwnGLULzWzvzJkzg61btwabN2+2dxDIOw3k5yZkWgrsSnQSz58/7xs+fLglrhvJuXPn+jZt2tT39evXvjFjxtg7XChH5CdOnIjuDG7Kai/PnzZtmj2LZ3Yaq1evtrYj47LoqMDgGnCjg0IcFNnT0xN9+gNOxP1mv3sgaHZ73eDQjvJLo7e319pNgCiLjppK7N27N3j//n1w8ODBYNKkSdHdxqMh79SpUy0Xjx8/DsKg1NR3DwRltHfEiBHBqVOn7HrlypWWdwrPnj2zfMGCBZaXQccEBuZmx48fD8IRQ7Bhw4bobnN48OCB5XPmzLEcvn37Fjx58iRYvHhxdKcWFtlY+4jP1VudPO3l/smTJ62dmjezfpClzQSYcBRiwb2TFiRv3rxp+YQJEywvg44JDIcPH7Y8HI5Z3kxu375tOYtn4vTp05b7oj5Gzur7kSNHghs3bkR3Bw952vvmzZtg48aNwYoVK5jGBuEUIQinCMGOHTuCFy9eRH+VzLJlyyzfs2eP5e0OMvnx44ddz5071/JS+DOjqCWMyv9b9GCO53L16lW7TzlzoFaHdQXqevfu3ehOdmif5rckrlkE27Vrl13H4V3ufebEae9ncQ75Ula2PHmv9Ewd0Wsc1g7UdhK24ZK3vXE0h86qG9Ujz1oDMpa9svYhaIvWQqizu1CKbChTW9B3PWgD8tR3SHyuV1fexfNVR31PdfPZWRJ6lurgLthSD+mTd/n0Dd7A4CpWyVWaVpvdlBUZf39SXmhPke8iYBQig+EzyJBJKC8O9xVMaS+KQFHc5zPyc41TSDZlBQbqR92QD+1TvX24xhSnaHsFf5/H8FUX14nT4N3IlPrJrmmzz85Vxt9Sp3iZ62Rx5MTYhIIn7ecdpHhAFaoHSc/n/XoeKUtQAtWb98qeeC74/Jbkq1eNp/BHPEhC15d5CagRfKYSGATlWVFl+5PyUs/ofbiGoba7qC4+J1bgQE4olGe5yte9OJJNWYGB3kLvoj5qE3WNI0dvZHsB40fOSeU+XAesh0YEQvbKfa6pu+rLfbWR4CMHp1zf87UfJB9fnVTm1kPI30hxubu+khaQXNCpfJdn813kK33oOe6zfW3yepnrCPqyKo2Q3HIElkVBA4kMF2VnJU2ZILm4sugvUlaS8TUbBUJfT6xeGmNrBNgRsuW5eYICFNGn4Hsk3h1vp9qIA8X1rjKfblwn88lH9fV1THquT+b1nlsPfZ938O544NG7ff7rXXzUIod7ykpbTmwbqZwV5rDCwfLly+1zu0C7Dhw4YNfbtm2z3MU9gTd+/PjoauDhFGJ3d7et8tOGvLAACp8+fbJc8CwWRUNnCUaPHh3dLQ7PY1cCrl+/bjZVBq7evn//XrM79ejRI8uR4b59++w6zqhRo6Kr/9i/f7/l9eSDr7iwsIhcw0Dk3Sn7/Pmz5ZQXkbt2i3jH9u3bE7eNf/78GV39R+quxJcvXywPexLL41y6dMm2/9rpiC/QLqDdPoW8fv3acsobadRS5MePHy3Py9GjR20FGwNk9T8vMpynT59aLm7dumW5L0gWgfMkcOzYMcuB7cpmb9NKb6DALwhWWv0/c+ZMjV61WzRjxgzLhYImaMckCXzFhW1bSPKfly9fWp62xZ2Gzj/w3rQt+vj5E0gNDDJUn/EjkJ07d/6Nlu3EnTt3LE9SiMrVw/YX7emzZQect+CzetWsbNmyxXoXDKHISEb75Oo5BVuDjRot0EvSPs446ByD2j5x4sTor5qD9BYOnWva8vDhQ8uRXXxbUCMNX8+t74G7XesiB2Uk56LzCfPnz7c8zoULFyzn9zxFQMbAaMHHu3fvLPeNglIDw69fvyxfuHCh5S5EfaJn3tECQnYNokhqNhLo0KFDLXdheiWFNeJEHzCcDqd1NYn7eVi6dKkNkVF4kZGMHIKek8AP6IsRSKNGC8jM11YS9W8m0qvvLMn9+/ct93UG6iB9Za9evbKcgJIkcwUAzm64aGoxcuRIy10kd5g9e7blecBO9f1FixZZ7oJ+08pTA4OGlHEHYQjEoRx3KNjKqP6KkPWQwHzwSz9R5km0stC0UVORtWvXBr29vQ0ZLTQKTbWGDRtmeRZcR/HpTbbuC/YXL160PO1Icnw0IHBwTVF8DugDp0XuosjBprdv31qetD6h6WFPT4+3PDUwqNdwBcm/XcDJtStXrhQyFhrp6y3ypLzMmjXL8jSHzwJzYLfNRRTW6mgezMKX5sCN/Fl6I9CieJ7fDshRwKc3rRPIVlw00ijSEZw9e9bytKnY79+/o6s/MBrX6CRpfa8eGsnE10SETo4mniANHS0RiknsjbL1oe2NrHuqrUQYOa3utKMeamfoJLaVRmL7MlSSyYIyrtsRba2xXYfMkk7GDSTUjxTffksjbYvT3RaM4yvDFiQX6kAZsoqj71Lm25KVTbJdSHnYcdk1ddRhJNWXcnSSFdmwr72ujpNIDQwYPw9QoiFZHKsVQQi0AaXWw3dCjLZjBFmEOphR4CO14vkU1Y+gnQc5CvqLkxY05PgknBPb4O9cR9ezsQnd5++wGeqZFMB0VsZN+Jze437m2dzLivtM+SyBp975HJEaGNwTgwjPFcZgA6HQFpSVBQToRnS+D1xzz3cgpR1we8BW1Lfkn8dJgO+QfCMgOXZSpyFnQia+wIKcuI+f6D04dD2fkcPr2W5gIVe9eFaeDtnVYbxePDPLKDA1MLQbUoJPuYCxKUInoWCR1AsMdtQjZzGespHB5x0tdBoabRAEitJRgQGHx6hw7rhjaz5IYEii6DB2sIBM1HO1GugO3SD/dg3KjaJeB5iF1F2JdoN95suXL9s1K9ru7/+1V71q1SrLfXCyEJIOjAxm2IFav3697UokHQceKKgbh73YHQh7w4adH2lX+JezoD8HxjoqMABGhYGxjTN58mTbgnR/E6JDXXE4t8GWVthrNf1fgCqL7u5u+30Fe+04Htu5Zf52oR4EBOQ+btw4OwsQjura7vh9M9D26pAhQywvRDRy6EiYi7GYxeISi4sMo0nuwhb3GZIhqnrrD4MJLcYqMT1qtSE6UzdkzkJvu8i92WhKTMqzYBmnowNDHJyF+RlO4joNizjttgshA9KaQuV47YE6MenW7eTyUP1v1xUVFTGC4F9PmThJANoAcAAAAABJRU5ErkJggg==;" vertex="1" parent="1">
          <mxGeometry x="323.5" y="333.64" width="192" height="22.72" as="geometry" />
        </mxCell>
        <mxCell id="GY1q3MS_324Swv_kfccG-8" style="edgeStyle=orthogonalEdgeStyle;rounded=0;orthogonalLoop=1;jettySize=auto;html=1;exitX=0;exitY=0.5;exitDx=0;exitDy=0;" edge="1" parent="1" source="GY1q3MS_324Swv_kfccG-4">
          <mxGeometry relative="1" as="geometry">
            <mxPoint x="153.3599999999999" y="459.99" as="targetPoint" />
            <mxPoint x="173.3657471264368" y="429.48425287356326" as="sourcePoint" />
            <Array as="points">
              <mxPoint x="153.51" y="399.5" />
            </Array>
          </mxGeometry>
        </mxCell>
        <mxCell id="GY1q3MS_324Swv_kfccG-9" style="edgeStyle=orthogonalEdgeStyle;rounded=0;orthogonalLoop=1;jettySize=auto;html=1;exitX=0.998;exitY=0.501;exitDx=0;exitDy=0;exitPerimeter=0;" edge="1" parent="1" source="GY1q3MS_324Swv_kfccG-4">
          <mxGeometry relative="1" as="geometry">
            <mxPoint x="283.51999999999987" y="460.5" as="targetPoint" />
            <mxPoint x="253.51425287356318" y="419.99425287356325" as="sourcePoint" />
            <Array as="points">
              <mxPoint x="283.51" y="400.5" />
            </Array>
          </mxGeometry>
        </mxCell>
        <mxCell id="GY1q3MS_324Swv_kfccG-4" value="" style="rhombus;whiteSpace=wrap;html=1;" vertex="1" parent="1">
          <mxGeometry x="173.51" y="360" width="80" height="80" as="geometry" />
        </mxCell>
        <mxCell id="GY1q3MS_324Swv_kfccG-5" value="" style="shape=image;verticalLabelPosition=bottom;labelBackgroundColor=default;verticalAlign=top;aspect=fixed;imageAspect=0;image=data:image/png,iVBORw0KGgoAAAANSUhEUgAAAEoAAAAiCAYAAAD4d09GAAAAAXNSR0IArs4c6QAAAARnQU1BAACxjwv8YQUAAAAJcEhZcwAADsMAAA7DAcdvqGQAAAJGSURBVGhD7ZlPrilBFMaPN5cQS2AokQhhYGJkAQZsAXMDphJhLliAWIEVMDORIEbEAliD11+9U32LSPdxBzd9884vqZz6q6u+On2qOmIPD1JC+cNWCUGFEqJCCVGhhKhQQlQoISqUEBVKiAolRIUSIhJqPp9TJpOhWCxm8i73+53a7bZpQ5/L5cIt0cNdB+ZswZztGpDG4zG3OOBbL4hWq4VvQT/VajVueTxut9ujUCg8tY9GI24NB7/ljv00ffIsrAP9MWc7frfbmZRMJp9+d7Va8agvAj2q3+/Tdrul8/lM3kO49otOp0PFYpG8h9NsNuPa6GG9vNvtUiqVMnkQj8epWq3ScDiEw1Cv1zP1pVLJ2Cf+6fUeqI0dANgNdG80GqYM1uu1375cLv1dijqYJxI8GvOWEOhRuVzO34Hr9WpsPp83FlQqFb99v99TOp02Y6LMZrPhHFEikaBms8mlYMSnnnXfbDZr7CvT6ZQGgwGXosvxeOQc0WQy4ZwA9qxQ0BUJr9sreC09b+JStEHowDrcECJBJJR7UrxiT413Aobxk6eeBRuKsd7hwzUyRK/e6XQy1hPEWAvuUPV6nbyj18SrqIPwgRMclMtlY8WwYIHgXoGu7h0KnoTdceuijl2HcNlPiDzqcDgYCw9Cws0V9w942GKxMG2/AbsOb3ON/QgWLBB3J2zCTdfeoX4LNiZ+J7aJg7kNgjgtvhO4o4Dd5HefKGHo/3pCxBfO/x0VSogKJUSFEqJCCVGhhKhQQlQoISqUCKK/LwF6oYBwSY4AAAAASUVORK5CYII=;" vertex="1" parent="1">
          <mxGeometry x="189.16" y="389.5" width="45.7" height="21" as="geometry" />
        </mxCell>
        <mxCell id="GY1q3MS_324Swv_kfccG-6" value="Подпись не верна" style="shape=parallelogram;perimeter=parallelogramPerimeter;whiteSpace=wrap;html=1;fixedSize=1;" vertex="1" parent="1">
          <mxGeometry x="215.01" y="460.5" width="100" height="40" as="geometry" />
        </mxCell>
        <mxCell id="GY1q3MS_324Swv_kfccG-7" value="Подпись&lt;br&gt;верна" style="shape=parallelogram;perimeter=parallelogramPerimeter;whiteSpace=wrap;html=1;fixedSize=1;" vertex="1" parent="1">
          <mxGeometry x="109.01" y="460.5" width="96" height="40" as="geometry" />
        </mxCell>
        <mxCell id="GY1q3MS_324Swv_kfccG-10" value="Да" style="text;html=1;align=center;verticalAlign=middle;resizable=0;points=[];autosize=1;strokeColor=none;fillColor=none;" vertex="1" parent="1">
          <mxGeometry x="143.51" y="376.5" width="40" height="30" as="geometry" />
        </mxCell>
        <mxCell id="GY1q3MS_324Swv_kfccG-11" value="Нет" style="text;html=1;align=center;verticalAlign=middle;resizable=0;points=[];autosize=1;strokeColor=none;fillColor=none;" vertex="1" parent="1">
          <mxGeometry x="247.51" y="377.5" width="40" height="30" as="geometry" />
        </mxCell>
        <mxCell id="GY1q3MS_324Swv_kfccG-15" value="" style="shape=image;verticalLabelPosition=bottom;labelBackgroundColor=default;verticalAlign=top;aspect=fixed;imageAspect=0;image=data:image/png,iVBORw0KGgoAAAANSUhEUgAAAKAAAAAhCAYAAABeI6BQAAAAAXNSR0IArs4c6QAAAARnQU1BAACxjwv8YQUAAAAJcEhZcwAADsMAAA7DAcdvqGQAAAaKSURBVHhe7Zw9Sx5NFIbXtxdR09lpUkiEFIkfiBZaRAtLwSSVnSSFPyDaCYoWVmJULNIlYqsSGwWjFkZFSSCCxsLaT/wBZu/j3mZYZ3dnZ9dseJkLhrPP7ON8nHPP2dl5QkpufDyHoyD+C6zDUQhOgI5CcQJ0FIoToKNQnAAdheIE6CgUJ0BHocQKcHp62nv8+LFXUlLivXv3Lqj1vOPjY/mM+oqKCvkeOTs7k3uox/2BgYHgjh3r6+tefX29tAWL9snY2NhdP+hTvZcG/B3GybY+f/4c3Lntv7OzU+pR8NkW9IMxcz4s+Pzq1Svxa16E+8E15oV54toWtEFNwC9h4B/2iaLqRgsOonW8ffv2ZnR09Ob09PSmvLwch9U3e3t7UvhZLajHd1+8eHHv3qdPn4JW04G/6+npkXY7Ojqkrampqch+MOa0sK2vX7/eLC4uSjuYH0D/4T7wfRvUMav+QJ/0569fv4Jae9gP2qSvAGLJOcCnNmDc8DHarKmpuTcXAl+yL919Fa0A4Qg1mOwM9bimMCE6doQ6iASTw/fUQeKeDRQfwHjQFgKGerUfXHMcaUF7CBSg4yhIBBEWoA7FFopZt0jQP3yVFfiCIue4Vegj23ggvozH+/fvpS34Pgy+g3vwH78fhVHEOHA4j8EizEzoLOxc3rOdsArbQh/hSasrDovCFlWAEESWtsLAB2z7oaAodCIH9JFOnGkJPy1U6MeocagkClANrk7tGADuIWBhtVM0SWnYBI5B1486xizOpUhQwgstK+oYEZikzJAWZh0U3aNc7T+PvtFHVHtcCLpxhEkUIALBjsINqpPWBT7q79KiPuqT9hxZnMtH+UNlKT6GUbCQkEXygnGKGnvSfRuYfMKxx9xMsh9IFCCDost+TMPoMAxFoUvRaWHgotpKum8KHZp39lOBXyAC9IOCbJEHjFNUe7xvKgwT+IRT/cVYmCadxHPA7e1tsW1tbWJVNjY2xL58+VKsyubmpljdvbSsra2JxVGFju/fv4uNum8CjkAuLi7kuqmpSexD0NLS4n379s3zhSCfh4eHvaWlJbnOAuNUVlYmVgVzm5ubk+tnz56JzYP29naxJycnYsHHjx9lbtXV1UFNPLECxMB9Jcv106dPxars7OyI1U1qfn5erE64aUHAQJTz6Nw3b96ItWFra0usnwVzDVIUk5OTnp9B5HphYUFsFhgnHepZnC6OttTV1YmlDnBGCD8ODQ3JZxNiBXhwcBBc3a7cMMvLy2J1GYMrMo8Jx7WFScP5CKZujKYwizY0NIjNCxw+40BWd8jMDHJ+fi72IcCBtJqNsvgoTFVVldijoyOZ5+DgoDcyMuJVVlZKvQmxAvzx44dYrlQV9ReBcMZQ73HCOIFXHzX8dSHpsRn3ywMmjdWNrOW/wQa1f1BP5ff394NaPVzFFIUJJnP4+fOnWGZYlaurK7G6pwSEg7bx64wJjNHMzIz4BQU+x5Ooq6tL7vl7T7Fh0vhJhXFHAhgfH5c49PX1SZ0psQJcWVkRqwsK93g6cZaWlgZXtyJBlkKAGxsbg9o/XF5eBld62A+YmJiQ9gDEzPZWV1cTH5vX19fBlR5m8+bmZrFpiJsDx4+Foi4m/HyJ/R9E0d3dHdTeh/vSJHp7e8VCDI8ePZLy4cMHb3Z29i6RmPwEl+SnMBQ15oK+0hIrQAaFz3oVivP58+diVSAG/21Mrp88eSKb1C9fvqRKzWR3d1csN+1wLFZqf3+/vOAcHh5m3rOpwqitrQ2u8gHigi/waG9tbb3LNAgWsratX8IgC6MfZCHgv/XK1gW+oQ+z+klHTU2NWMzFqv3gbfiv42fOe6/wOnDEg+/pzhmTyPMoSIfpHGzgobju+EsFxx441ok7/8T80VbULztZ/IS+UWwpRIBwFiaLEuc4/3EijkGxgUGEzRvTOdhCccctPAonTgBxZ7XE1k84U8T8s/xkWYgATQdO59msMLSNPtDXQ5CH86PgYS5sHCbCScrStn4yHWMSsXvAhwAvETiSMHlx4ObZZo+Et0/si3Deljdp5mADDt79wBofrPNtOgxe/rCP9xdw5NupqZ/w0oSXGMwdb+ivX7+WfZ/pGCMJhPhPwtUL67gPtijIXihqJkI9syOeHnlsEZAh0R5LXj8h/tMCVCecZaP7fwZigzj4ssaCRZvnyxGTAeKQ5z+icP81h6NQ/voe0OFQcQJ0FIoToKNQnAAdheIE6CgQz/sNwXkC+YYhmGsAAAAASUVORK5CYII=;" vertex="1" parent="1">
          <mxGeometry x="154.26" y="108.09000000000003" width="115.51" height="23.82" as="geometry" />
        </mxCell>
        <mxCell id="GY1q3MS_324Swv_kfccG-17" value="" style="endArrow=classic;html=1;rounded=0;entryX=0.939;entryY=-0.008;entryDx=0;entryDy=0;entryPerimeter=0;exitX=0.95;exitY=1.007;exitDx=0;exitDy=0;exitPerimeter=0;" edge="1" parent="1" source="GY1q3MS_324Swv_kfccG-14" target="GY1q3MS_324Swv_kfccG-12">
          <mxGeometry width="50" height="50" relative="1" as="geometry">
            <mxPoint x="320" y="350" as="sourcePoint" />
            <mxPoint x="370" y="300" as="targetPoint" />
          </mxGeometry>
        </mxCell>
        <mxCell id="GY1q3MS_324Swv_kfccG-20" value="" style="endArrow=classic;html=1;rounded=0;exitX=0;exitY=0.5;exitDx=0;exitDy=0;entryX=1;entryY=0;entryDx=0;entryDy=0;" edge="1" parent="1" source="GY1q3MS_324Swv_kfccG-12" target="GY1q3MS_324Swv_kfccG-4">
          <mxGeometry width="50" height="50" relative="1" as="geometry">
            <mxPoint x="240" y="380" as="sourcePoint" />
            <mxPoint x="290" y="330" as="targetPoint" />
            <Array as="points">
              <mxPoint x="270" y="345" />
            </Array>
          </mxGeometry>
        </mxCell>
      </root>
    </mxGraphModel>
  </diagram>
</mxfile>
